<svg id="svg" version="1.1" xmlns="http://www.w3.org/2000/svg" xmlns:xlink="http://www.w3.org/1999/xlink" width="400" height="400" viewBox="0, 0, 400,400"><g id="svgg"><path id="path0" d="M187.400 68.731 C 186.520 69.136,184.660 69.586,183.266 69.731 C 181.657 69.899,180.361 70.288,179.712 70.797 C 179.151 71.239,178.221 71.601,177.646 71.601 C 177.071 71.602,176.028 71.952,175.329 72.378 C 174.630 72.804,173.401 73.276,172.597 73.427 C 171.794 73.578,171.045 73.937,170.935 74.226 C 170.824 74.515,170.234 74.861,169.624 74.995 C 169.015 75.129,168.175 75.500,167.758 75.821 C 166.233 76.993,163.390 78.786,163.046 78.793 C 162.851 78.797,162.283 79.205,161.784 79.700 C 160.665 80.808,160.109 81.250,158.596 82.232 C 156.644 83.499,152.080 87.777,150.688 89.645 C 149.019 91.883,145.929 95.871,145.195 96.734 C 144.758 97.248,144.400 97.916,144.400 98.218 C 144.400 98.521,144.062 99.091,143.650 99.484 C 143.237 99.878,142.762 100.650,142.595 101.200 C 142.427 101.750,141.955 102.629,141.545 103.154 C 141.135 103.679,140.800 104.419,140.800 104.800 C 140.800 105.181,140.440 105.950,140.000 106.509 C 139.560 107.069,139.200 107.993,139.200 108.563 C 139.200 109.133,138.847 109.953,138.416 110.384 C 137.940 110.860,137.527 111.999,137.366 113.284 C 137.220 114.448,136.786 115.940,136.401 116.600 C 135.945 117.384,135.616 119.085,135.455 121.503 C 135.319 123.539,134.936 125.856,134.604 126.652 C 133.739 128.722,133.757 138.121,134.630 140.210 C 134.976 141.038,135.354 143.355,135.469 145.358 C 135.615 147.900,135.889 149.302,136.376 150.000 C 136.759 150.550,137.201 151.974,137.359 153.165 C 137.516 154.356,137.995 155.776,138.422 156.319 C 138.850 156.863,139.200 157.750,139.200 158.291 C 139.200 158.831,139.560 159.731,140.000 160.291 C 140.440 160.850,140.800 161.619,140.800 162.000 C 140.800 162.381,141.135 163.121,141.545 163.646 C 141.955 164.171,142.431 165.050,142.602 165.600 C 142.774 166.150,143.228 166.821,143.612 167.091 C 143.995 167.361,144.434 168.079,144.586 168.687 C 144.739 169.296,145.116 170.065,145.424 170.397 C 146.525 171.581,147.816 173.204,148.800 174.640 C 149.350 175.443,150.205 176.503,150.700 176.996 C 151.195 177.489,151.600 177.992,151.600 178.115 C 151.600 178.682,156.611 183.059,160.372 185.777 C 161.267 186.424,162.000 187.097,162.000 187.271 C 162.000 187.446,162.585 187.869,163.300 188.210 C 165.647 189.331,167.073 190.189,167.771 190.900 C 168.148 191.285,168.884 191.600,169.406 191.600 C 169.928 191.600,170.590 191.936,170.877 192.346 C 171.165 192.757,172.015 193.228,172.767 193.393 C 173.518 193.558,174.688 194.031,175.367 194.445 C 176.045 194.859,177.029 195.198,177.553 195.199 C 178.077 195.199,179.067 195.537,179.753 195.949 C 180.439 196.361,182.053 196.815,183.340 196.957 C 184.627 197.100,186.484 197.583,187.467 198.031 C 189.981 199.176,211.512 199.068,213.228 197.901 C 213.793 197.517,215.413 197.088,216.828 196.948 C 218.242 196.808,219.709 196.425,220.086 196.098 C 220.463 195.770,221.619 195.344,222.655 195.150 C 223.691 194.957,224.823 194.544,225.170 194.233 C 225.516 193.922,226.463 193.545,227.274 193.394 C 228.084 193.244,229.057 192.779,229.436 192.360 C 229.814 191.942,230.486 191.600,230.928 191.600 C 231.371 191.600,232.018 191.326,232.366 190.990 C 233.293 190.098,235.787 188.521,236.759 188.213 C 237.222 188.066,237.787 187.598,238.014 187.173 C 238.242 186.748,238.659 186.400,238.942 186.400 C 239.225 186.400,239.831 185.995,240.289 185.500 C 240.748 185.005,241.782 184.150,242.588 183.600 C 244.424 182.346,249.106 177.746,249.961 176.356 C 250.314 175.782,251.270 174.522,252.086 173.556 C 254.928 170.191,255.600 169.281,255.600 168.800 C 255.600 168.534,256.050 167.781,256.600 167.127 C 257.150 166.473,257.600 165.614,257.600 165.218 C 257.600 164.822,257.861 164.282,258.180 164.017 C 258.498 163.752,258.975 162.880,259.240 162.079 C 259.504 161.278,259.964 160.379,260.260 160.082 C 260.557 159.786,260.800 159.184,260.800 158.745 C 260.800 157.905,261.500 156.345,262.037 155.991 C 262.211 155.876,262.538 154.637,262.763 153.237 C 262.988 151.838,263.427 150.402,263.738 150.047 C 264.084 149.651,264.413 147.937,264.588 145.623 C 264.747 143.506,265.208 140.995,265.636 139.909 C 266.724 137.148,266.724 129.652,265.636 126.891 C 265.208 125.805,264.747 123.294,264.588 121.177 C 264.413 118.863,264.084 117.149,263.738 116.753 C 263.427 116.398,262.992 114.983,262.770 113.609 C 262.549 112.235,262.105 110.848,261.784 110.527 C 261.463 110.206,261.085 109.221,260.944 108.337 C 260.802 107.454,260.447 106.639,260.154 106.527 C 259.861 106.415,259.509 105.722,259.371 104.988 C 259.233 104.253,258.779 103.343,258.360 102.964 C 257.942 102.586,257.600 101.958,257.600 101.569 C 257.600 101.180,257.150 100.327,256.600 99.673 C 256.050 99.019,255.600 98.266,255.600 98.000 C 255.600 97.571,254.662 96.233,253.077 94.400 C 251.899 93.038,250.000 90.468,250.000 90.236 C 250.000 89.933,244.424 84.472,243.129 83.508 C 242.618 83.128,240.970 81.823,239.467 80.608 C 237.964 79.394,236.507 78.400,236.229 78.400 C 235.951 78.400,235.398 78.040,235.000 77.600 C 234.602 77.160,234.062 76.800,233.800 76.800 C 233.538 76.800,232.998 76.440,232.600 76.000 C 232.202 75.560,231.568 75.200,231.192 75.200 C 230.816 75.200,230.050 74.840,229.491 74.400 C 228.931 73.960,228.214 73.600,227.896 73.600 C 227.579 73.600,226.473 73.150,225.438 72.600 C 224.404 72.050,223.051 71.600,222.433 71.600 C 221.814 71.600,220.849 71.239,220.288 70.797 C 219.629 70.279,218.369 69.908,216.734 69.750 C 215.340 69.615,213.750 69.211,213.200 68.852 C 211.576 67.793,189.660 67.690,187.400 68.731 M187.600 234.862 C 180.597 235.135,177.741 235.396,176.400 235.887 C 175.349 236.273,172.686 236.648,170.000 236.789 C 166.644 236.966,165.122 237.216,164.371 237.715 C 163.679 238.175,162.109 238.482,159.571 238.653 C 157.045 238.823,155.565 239.111,155.089 239.525 C 154.648 239.909,153.206 240.234,151.289 240.382 C 149.376 240.529,147.809 240.882,147.172 241.308 C 146.607 241.687,144.987 242.112,143.572 242.252 C 142.158 242.392,140.704 242.764,140.341 243.078 C 139.979 243.392,138.566 243.807,137.200 244.000 C 135.834 244.193,134.421 244.608,134.059 244.922 C 133.696 245.235,132.522 245.606,131.448 245.746 C 130.375 245.885,128.913 246.359,128.201 246.799 C 127.488 247.240,126.382 247.600,125.742 247.600 C 125.102 247.600,124.159 247.893,123.647 248.252 C 123.135 248.610,121.973 249.071,121.064 249.275 C 120.155 249.479,119.116 249.914,118.756 250.240 C 118.395 250.567,117.402 250.944,116.550 251.078 C 115.697 251.213,114.571 251.655,114.046 252.061 C 113.521 252.468,112.673 252.800,112.162 252.800 C 111.650 252.800,110.909 253.145,110.516 253.568 C 110.122 253.990,109.260 254.467,108.600 254.629 C 107.940 254.790,106.971 255.255,106.446 255.661 C 105.921 256.067,105.181 256.400,104.800 256.400 C 104.419 256.400,103.679 256.735,103.154 257.145 C 102.629 257.555,101.750 258.029,101.200 258.200 C 100.650 258.371,99.771 258.845,99.246 259.255 C 98.721 259.665,97.967 260.000,97.569 260.000 C 97.171 260.000,96.610 260.324,96.323 260.720 C 96.035 261.116,95.215 261.678,94.500 261.969 C 93.785 262.259,93.200 262.652,93.200 262.841 C 93.200 263.030,92.750 263.298,92.200 263.436 C 91.650 263.574,91.200 263.838,91.200 264.022 C 91.200 264.379,87.127 267.200,86.612 267.200 C 86.159 267.200,75.200 278.232,75.200 278.687 C 75.200 278.901,74.856 279.387,74.436 279.767 C 74.016 280.148,73.564 280.890,73.431 281.418 C 73.299 281.945,72.833 282.568,72.395 282.803 C 71.932 283.051,71.600 283.639,71.600 284.214 C 71.600 284.756,71.236 285.564,70.791 286.009 C 70.339 286.461,69.872 287.620,69.733 288.639 C 69.595 289.640,69.194 290.748,68.842 291.101 C 68.270 291.673,68.200 293.941,68.200 311.971 L 68.200 332.200 199.758 332.301 C 302.039 332.379,331.446 332.294,331.898 331.918 C 333.020 330.988,332.463 293.022,331.300 291.153 C 330.802 290.352,330.400 289.063,330.400 288.267 C 330.400 287.258,330.171 286.705,329.633 286.417 C 329.210 286.191,328.739 285.420,328.585 284.703 C 328.431 283.986,328.052 283.130,327.743 282.800 C 326.982 281.989,325.200 279.235,325.200 278.872 C 325.200 278.712,324.390 277.818,323.400 276.886 C 322.410 275.955,321.600 275.093,321.600 274.972 C 321.600 274.852,320.603 273.818,319.383 272.676 C 318.164 271.534,316.284 269.760,315.206 268.734 C 314.127 267.708,312.875 266.751,312.422 266.607 C 311.970 266.464,311.600 266.178,311.600 265.973 C 311.600 265.768,311.364 265.600,311.075 265.600 C 310.787 265.600,310.118 265.195,309.590 264.700 C 308.557 263.733,308.164 263.471,305.727 262.129 C 304.858 261.650,303.911 260.975,303.624 260.629 C 303.337 260.283,302.764 260.000,302.351 260.000 C 301.938 260.000,301.240 259.640,300.800 259.200 C 300.360 258.760,299.755 258.400,299.456 258.400 C 299.157 258.400,298.249 257.950,297.438 257.400 C 296.628 256.850,295.640 256.400,295.244 256.400 C 294.848 256.400,294.214 256.058,293.836 255.640 C 293.457 255.221,292.554 254.768,291.829 254.632 C 291.103 254.496,290.187 254.028,289.793 253.592 C 289.399 253.156,288.571 252.800,287.954 252.800 C 287.336 252.800,286.509 252.463,286.116 252.051 C 285.722 251.639,284.560 251.181,283.533 251.032 C 282.506 250.883,281.453 250.504,281.193 250.191 C 280.932 249.878,280.063 249.505,279.260 249.362 C 278.457 249.219,277.239 248.765,276.553 248.351 C 275.867 247.938,274.766 247.600,274.107 247.600 C 273.447 247.600,272.471 247.257,271.938 246.837 C 271.405 246.418,270.075 245.948,268.984 245.794 C 267.893 245.639,266.576 245.247,266.059 244.920 C 265.541 244.594,264.038 244.175,262.717 243.988 C 261.397 243.802,260.007 243.368,259.627 243.025 C 259.248 242.681,258.321 242.396,257.569 242.390 C 255.609 242.377,253.135 241.742,252.775 241.160 C 252.595 240.868,251.167 240.567,249.316 240.431 C 247.474 240.296,245.756 239.935,245.182 239.562 C 244.584 239.174,242.803 238.819,240.625 238.654 C 238.600 238.501,236.519 238.102,235.825 237.735 C 235.009 237.302,232.966 236.989,229.704 236.795 C 226.669 236.615,224.570 236.307,224.181 235.984 C 223.002 235.006,201.134 234.335,187.600 234.862 " stroke="none" fill="#040404" fill-rule="evenodd"></path><path id="path1" d="M0.000 200.000 L 0.000 400.000 200.000 400.000 L 400.000 400.000 400.000 200.000 L 400.000 0.000 200.000 0.000 L 0.000 0.000 0.000 200.000 M206.000 66.399 C 207.430 66.608,210.182 66.957,212.114 67.176 C 214.047 67.396,216.022 67.851,216.503 68.187 C 216.984 68.524,218.049 68.800,218.870 68.800 C 220.384 68.800,222.400 69.493,222.400 70.013 C 222.400 70.170,223.146 70.417,224.058 70.563 C 224.970 70.709,226.213 71.182,226.820 71.614 C 227.427 72.046,228.246 72.400,228.640 72.400 C 229.034 72.400,229.997 72.809,230.778 73.310 C 232.837 74.628,233.619 75.094,235.300 76.004 C 236.125 76.451,236.800 76.993,236.800 77.208 C 236.800 77.424,237.149 77.600,237.576 77.600 C 238.003 77.600,238.469 77.787,238.610 78.016 C 238.751 78.245,239.527 78.853,240.334 79.368 C 241.140 79.882,242.835 81.296,244.100 82.509 C 245.366 83.722,246.671 84.818,247.000 84.945 C 247.330 85.071,247.600 85.438,247.600 85.760 C 247.600 86.083,247.960 86.460,248.400 86.600 C 248.840 86.740,249.200 86.999,249.200 87.176 C 249.200 87.352,250.055 88.414,251.100 89.534 C 253.714 92.338,254.800 93.813,254.800 94.563 C 254.800 94.913,254.970 95.200,255.179 95.200 C 255.709 95.200,258.400 99.338,258.400 100.154 C 258.400 100.523,258.661 100.925,258.981 101.048 C 259.300 101.170,259.773 101.930,260.031 102.735 C 260.290 103.541,260.732 104.470,261.013 104.800 C 261.295 105.130,261.725 106.120,261.969 107.000 C 262.213 107.880,262.680 108.949,263.006 109.376 C 263.333 109.804,263.600 110.616,263.600 111.182 C 263.600 111.749,263.958 112.880,264.395 113.696 C 264.833 114.512,265.300 116.219,265.433 117.490 C 265.566 118.760,265.973 120.430,266.337 121.200 C 267.326 123.288,267.326 143.511,266.338 145.600 C 265.974 146.370,265.578 147.933,265.460 149.074 C 265.341 150.214,264.874 151.959,264.422 152.952 C 263.970 153.944,263.600 155.182,263.600 155.702 C 263.600 156.222,263.333 156.996,263.006 157.424 C 262.680 157.851,262.213 158.920,261.969 159.800 C 261.725 160.680,261.295 161.670,261.013 162.000 C 260.732 162.330,260.290 163.259,260.031 164.065 C 259.773 164.870,259.300 165.630,258.981 165.752 C 258.661 165.875,258.400 166.331,258.400 166.767 C 258.400 167.202,257.950 168.044,257.400 168.638 C 256.850 169.231,256.400 169.954,256.400 170.244 C 256.400 170.534,256.040 170.965,255.600 171.200 C 255.160 171.435,254.800 171.869,254.800 172.163 C 254.800 172.701,251.390 177.180,249.964 178.516 C 249.544 178.909,249.200 179.404,249.200 179.616 C 249.200 179.827,248.913 180.000,248.563 180.000 C 248.212 180.000,247.831 180.360,247.716 180.800 C 247.601 181.240,247.374 181.600,247.213 181.600 C 246.968 181.600,244.500 183.755,242.000 186.152 C 241.670 186.468,240.905 186.952,240.300 187.228 C 239.695 187.503,239.200 187.889,239.200 188.085 C 239.200 188.281,238.660 188.630,238.000 188.860 C 237.340 189.090,236.800 189.450,236.800 189.660 C 236.800 189.869,236.125 190.321,235.300 190.663 C 234.475 191.006,233.664 191.523,233.498 191.812 C 233.331 192.101,232.675 192.452,232.039 192.591 C 231.403 192.731,230.566 193.195,230.179 193.623 C 229.793 194.050,229.127 194.400,228.700 194.400 C 228.273 194.400,227.440 194.745,226.848 195.166 C 226.257 195.587,225.064 196.064,224.197 196.227 C 223.329 196.390,222.388 196.754,222.105 197.038 C 221.822 197.321,220.738 197.666,219.695 197.806 C 218.653 197.945,216.990 198.383,216.000 198.779 C 215.010 199.175,212.670 199.610,210.800 199.746 C 208.930 199.882,206.771 200.175,206.003 200.397 C 203.922 200.997,196.197 200.884,193.000 200.207 C 191.460 199.881,189.243 199.611,188.074 199.607 C 186.905 199.603,185.105 199.253,184.074 198.830 C 183.043 198.406,181.360 197.947,180.333 197.810 C 179.306 197.673,178.249 197.300,177.984 196.980 C 177.719 196.661,177.101 196.400,176.611 196.400 C 176.120 196.400,174.873 195.950,173.838 195.400 C 172.804 194.850,171.732 194.400,171.457 194.400 C 171.181 194.400,170.345 193.950,169.600 193.400 C 168.855 192.850,167.928 192.400,167.542 192.400 C 167.156 192.400,166.696 192.149,166.520 191.843 C 166.344 191.537,165.525 191.006,164.700 190.663 C 163.875 190.321,163.200 189.864,163.200 189.647 C 163.200 189.431,162.795 189.129,162.300 188.976 C 161.805 188.824,161.130 188.448,160.800 188.142 C 160.470 187.836,159.011 186.632,157.558 185.468 C 153.056 181.858,146.517 174.896,145.381 172.505 C 145.041 171.787,144.582 171.200,144.360 171.200 C 144.139 171.200,143.770 170.660,143.540 170.000 C 143.310 169.340,142.981 168.800,142.809 168.800 C 142.638 168.800,142.262 168.215,141.976 167.500 C 141.689 166.785,141.127 165.771,140.727 165.246 C 140.327 164.721,140.000 163.984,140.000 163.608 C 140.000 163.232,139.640 162.598,139.200 162.200 C 138.760 161.802,138.400 161.097,138.400 160.635 C 138.400 160.172,137.950 158.948,137.400 157.915 C 136.850 156.882,136.400 155.589,136.400 155.041 C 136.400 154.494,136.059 153.450,135.642 152.723 C 135.225 151.995,134.760 150.352,134.609 149.071 C 134.459 147.791,134.040 146.081,133.679 145.271 C 132.693 143.062,132.689 124.233,133.673 121.600 C 134.043 120.610,134.526 118.588,134.745 117.107 C 134.965 115.626,135.427 114.011,135.772 113.518 C 136.118 113.025,136.400 112.204,136.400 111.693 C 136.400 111.182,136.850 109.918,137.400 108.885 C 137.950 107.852,138.400 106.611,138.400 106.127 C 138.400 105.643,138.595 105.127,138.833 104.980 C 139.071 104.832,139.620 103.967,140.052 103.056 C 141.499 100.005,142.458 98.285,143.031 97.711 C 143.344 97.399,143.600 96.880,143.600 96.559 C 143.600 96.238,143.879 95.868,144.219 95.737 C 144.560 95.607,145.055 94.990,145.319 94.367 C 145.824 93.178,147.719 90.846,150.900 87.497 C 151.945 86.397,152.800 85.340,152.800 85.149 C 152.800 84.957,152.994 84.800,153.232 84.800 C 153.469 84.800,154.504 83.989,155.532 82.998 C 158.248 80.377,158.505 80.160,159.530 79.625 C 160.042 79.358,160.807 78.793,161.230 78.370 C 161.654 77.946,162.180 77.600,162.400 77.600 C 162.620 77.600,163.115 77.319,163.500 76.975 C 164.695 75.908,167.175 74.421,168.181 74.169 C 168.709 74.036,169.452 73.584,169.833 73.164 C 170.213 72.744,170.873 72.400,171.300 72.400 C 171.727 72.400,172.573 72.046,173.180 71.614 C 173.787 71.182,175.030 70.709,175.942 70.563 C 176.854 70.417,177.600 70.158,177.600 69.988 C 177.600 69.533,179.926 68.800,181.371 68.800 C 182.059 68.800,183.025 68.518,183.518 68.172 C 184.329 67.605,186.069 67.326,197.000 66.011 C 199.581 65.701,201.889 65.800,206.000 66.399 M213.867 233.264 C 214.710 233.481,218.395 233.898,222.056 234.191 C 225.717 234.485,229.088 234.926,229.547 235.172 C 230.006 235.418,232.320 235.802,234.688 236.027 C 237.056 236.251,239.355 236.669,239.797 236.956 C 240.238 237.242,241.950 237.584,243.600 237.716 C 245.250 237.847,247.631 238.325,248.890 238.777 C 250.150 239.230,251.822 239.600,252.606 239.600 C 253.390 239.600,254.700 239.935,255.516 240.345 C 256.332 240.755,257.990 241.215,259.200 241.369 C 260.410 241.522,261.764 241.884,262.209 242.173 C 262.654 242.462,263.824 242.827,264.809 242.983 C 265.794 243.140,267.281 243.613,268.112 244.034 C 268.944 244.455,270.151 244.800,270.793 244.800 C 272.048 244.800,274.000 245.542,274.000 246.019 C 274.000 246.178,274.848 246.436,275.884 246.592 C 276.920 246.747,278.205 247.218,278.738 247.637 C 279.271 248.057,280.199 248.400,280.800 248.400 C 281.401 248.400,282.321 248.737,282.846 249.148 C 283.371 249.559,284.430 250.032,285.200 250.198 C 285.970 250.364,287.230 250.823,288.000 251.217 C 288.770 251.611,289.850 252.127,290.400 252.364 C 290.950 252.601,291.670 252.965,292.000 253.173 C 292.330 253.382,293.062 253.648,293.626 253.765 C 294.191 253.882,295.073 254.343,295.587 254.789 C 296.102 255.235,296.857 255.600,297.265 255.600 C 297.674 255.600,298.316 255.960,298.693 256.400 C 299.070 256.840,299.643 257.200,299.967 257.200 C 300.292 257.200,301.197 257.609,301.978 258.110 C 304.557 259.761,304.988 260.011,306.278 260.604 C 306.981 260.928,307.701 261.419,307.878 261.696 C 308.055 261.973,308.875 262.543,309.700 262.963 C 310.525 263.383,311.200 263.858,311.200 264.020 C 311.200 264.181,311.650 264.426,312.200 264.564 C 312.750 264.702,313.200 265.070,313.200 265.381 C 313.200 265.692,313.568 266.063,314.017 266.205 C 314.466 266.348,315.553 267.170,316.433 268.032 C 317.313 268.895,318.179 269.600,318.358 269.600 C 318.729 269.600,321.820 272.859,324.200 275.759 C 325.080 276.831,326.205 278.109,326.700 278.600 C 327.195 279.090,327.600 279.661,327.600 279.868 C 327.600 280.075,328.050 280.855,328.600 281.600 C 329.150 282.345,329.600 283.190,329.600 283.478 C 329.600 283.765,329.960 284.360,330.400 284.800 C 330.840 285.240,331.200 285.984,331.200 286.453 C 331.200 286.922,331.567 287.900,332.016 288.627 C 332.491 289.394,332.982 291.174,333.188 292.874 C 333.383 294.483,333.735 296.429,333.971 297.197 C 334.247 298.097,334.400 304.555,334.400 315.328 L 334.400 332.062 333.231 333.231 L 332.062 334.400 200.120 334.400 C 85.085 334.400,68.071 334.325,67.344 333.816 C 65.604 332.597,65.538 331.814,65.673 313.951 C 65.765 301.682,65.933 296.768,66.281 296.162 C 66.546 295.700,66.935 293.932,67.146 292.232 C 67.357 290.532,67.800 288.839,68.131 288.470 C 68.462 288.102,68.858 287.122,69.012 286.294 C 69.165 285.466,69.521 284.656,69.803 284.494 C 70.084 284.332,70.603 283.570,70.956 282.800 C 72.773 278.840,76.694 274.137,81.960 269.600 C 83.110 268.610,84.349 267.485,84.714 267.100 C 85.079 266.715,85.599 266.400,85.869 266.400 C 86.139 266.400,86.505 266.142,86.681 265.827 C 87.102 265.075,89.510 263.327,90.900 262.766 C 91.505 262.522,92.000 262.150,92.000 261.940 C 92.000 261.731,92.599 261.309,93.332 261.003 C 94.064 260.697,94.896 260.166,95.181 259.823 C 95.465 259.480,95.922 259.200,96.195 259.200 C 96.468 259.200,97.136 258.851,97.678 258.425 C 98.220 257.998,99.131 257.532,99.702 257.389 C 100.274 257.245,101.052 256.784,101.433 256.364 C 101.813 255.944,102.448 255.600,102.844 255.600 C 103.240 255.600,104.228 255.150,105.038 254.600 C 105.849 254.050,106.773 253.600,107.093 253.600 C 107.412 253.600,108.131 253.240,108.691 252.800 C 109.250 252.360,110.106 252.000,110.593 252.000 C 111.079 252.000,111.871 251.659,112.351 251.242 C 112.832 250.825,113.895 250.360,114.713 250.208 C 115.531 250.057,116.493 249.670,116.850 249.349 C 117.208 249.028,118.198 248.660,119.050 248.530 C 119.903 248.400,120.960 247.977,121.400 247.589 C 121.840 247.202,123.010 246.756,124.000 246.599 C 124.990 246.442,126.108 246.041,126.484 245.709 C 126.860 245.377,128.030 245.014,129.084 244.902 C 130.138 244.790,131.279 244.456,131.620 244.160 C 131.961 243.864,133.446 243.369,134.920 243.059 C 136.394 242.750,137.830 242.307,138.110 242.075 C 138.391 241.842,139.605 241.521,140.810 241.361 C 142.014 241.201,143.720 240.744,144.600 240.344 C 145.480 239.945,146.879 239.614,147.710 239.609 C 148.540 239.604,150.250 239.231,151.510 238.781 C 152.769 238.331,155.060 237.853,156.600 237.719 C 158.140 237.585,159.762 237.241,160.203 236.955 C 160.645 236.669,162.944 236.251,165.312 236.027 C 167.680 235.802,169.991 235.419,170.448 235.175 C 170.904 234.930,174.389 234.499,178.193 234.217 C 181.997 233.935,185.354 233.549,185.654 233.361 C 187.110 232.446,210.378 232.366,213.867 233.264 " stroke="none" fill="#fbfbfb" fill-rule="evenodd"></path><path id="path2" d="M197.000 66.011 C 186.069 67.326,184.329 67.605,183.518 68.172 C 183.025 68.518,182.059 68.800,181.371 68.800 C 179.926 68.800,177.600 69.533,177.600 69.988 C 177.600 70.158,176.854 70.417,175.942 70.563 C 175.030 70.709,173.787 71.182,173.180 71.614 C 172.573 72.046,171.727 72.400,171.300 72.400 C 170.873 72.400,170.213 72.744,169.833 73.164 C 169.452 73.584,168.709 74.036,168.181 74.169 C 167.175 74.421,164.695 75.908,163.500 76.975 C 163.115 77.319,162.620 77.600,162.400 77.600 C 162.180 77.600,161.654 77.946,161.230 78.370 C 160.807 78.793,160.042 79.358,159.530 79.625 C 158.505 80.160,158.248 80.377,155.532 82.998 C 154.504 83.989,153.469 84.800,153.232 84.800 C 152.994 84.800,152.800 84.957,152.800 85.149 C 152.800 85.340,151.945 86.397,150.900 87.497 C 147.719 90.846,145.824 93.178,145.319 94.367 C 145.055 94.990,144.560 95.607,144.219 95.737 C 143.879 95.868,143.600 96.238,143.600 96.559 C 143.600 96.880,143.344 97.399,143.031 97.711 C 142.458 98.285,141.499 100.005,140.052 103.056 C 139.620 103.967,139.071 104.832,138.833 104.980 C 138.595 105.127,138.400 105.643,138.400 106.127 C 138.400 106.611,137.950 107.852,137.400 108.885 C 136.850 109.918,136.400 111.182,136.400 111.693 C 136.400 112.204,136.118 113.025,135.772 113.518 C 135.427 114.011,134.965 115.626,134.745 117.107 C 134.526 118.588,134.043 120.610,133.673 121.600 C 132.689 124.233,132.693 143.062,133.679 145.271 C 134.040 146.081,134.459 147.791,134.609 149.071 C 134.760 150.352,135.225 151.995,135.642 152.723 C 136.059 153.450,136.400 154.494,136.400 155.041 C 136.400 155.589,136.850 156.882,137.400 157.915 C 137.950 158.948,138.400 160.172,138.400 160.635 C 138.400 161.097,138.760 161.802,139.200 162.200 C 139.640 162.598,140.000 163.232,140.000 163.608 C 140.000 163.984,140.327 164.721,140.727 165.246 C 141.127 165.771,141.689 166.785,141.976 167.500 C 142.262 168.215,142.638 168.800,142.809 168.800 C 142.981 168.800,143.310 169.340,143.540 170.000 C 143.770 170.660,144.139 171.200,144.360 171.200 C 144.582 171.200,145.041 171.787,145.381 172.505 C 146.517 174.896,153.056 181.858,157.558 185.468 C 159.011 186.632,160.470 187.836,160.800 188.142 C 161.130 188.448,161.805 188.824,162.300 188.976 C 162.795 189.129,163.200 189.431,163.200 189.647 C 163.200 189.864,163.875 190.321,164.700 190.663 C 165.525 191.006,166.344 191.537,166.520 191.843 C 166.696 192.149,167.156 192.400,167.542 192.400 C 167.928 192.400,168.855 192.850,169.600 193.400 C 170.345 193.950,171.181 194.400,171.457 194.400 C 171.732 194.400,172.804 194.850,173.838 195.400 C 174.873 195.950,176.120 196.400,176.611 196.400 C 177.101 196.400,177.719 196.661,177.984 196.980 C 178.249 197.300,179.306 197.673,180.333 197.810 C 181.360 197.947,183.043 198.406,184.074 198.830 C 185.105 199.253,186.905 199.603,188.074 199.607 C 189.243 199.611,191.460 199.881,193.000 200.207 C 196.197 200.884,203.922 200.997,206.003 200.397 C 206.771 200.175,208.930 199.882,210.800 199.746 C 212.670 199.610,215.010 199.175,216.000 198.779 C 216.990 198.383,218.653 197.945,219.695 197.806 C 220.738 197.666,221.822 197.321,222.105 197.038 C 222.388 196.754,223.329 196.390,224.197 196.227 C 225.064 196.064,226.257 195.587,226.848 195.166 C 227.440 194.745,228.273 194.400,228.700 194.400 C 229.127 194.400,229.793 194.050,230.179 193.623 C 230.566 193.195,231.403 192.731,232.039 192.591 C 232.675 192.452,233.331 192.101,233.498 191.812 C 233.664 191.523,234.475 191.006,235.300 190.663 C 236.125 190.321,236.800 189.869,236.800 189.660 C 236.800 189.450,237.340 189.090,238.000 188.860 C 238.660 188.630,239.200 188.281,239.200 188.085 C 239.200 187.889,239.695 187.503,240.300 187.228 C 240.905 186.952,241.670 186.468,242.000 186.152 C 244.500 183.755,246.968 181.600,247.213 181.600 C 247.374 181.600,247.601 181.240,247.716 180.800 C 247.831 180.360,248.212 180.000,248.563 180.000 C 248.913 180.000,249.200 179.827,249.200 179.616 C 249.200 179.404,249.544 178.909,249.964 178.516 C 251.390 177.180,254.800 172.701,254.800 172.163 C 254.800 171.869,255.160 171.435,255.600 171.200 C 256.040 170.965,256.400 170.534,256.400 170.244 C 256.400 169.954,256.850 169.231,257.400 168.638 C 257.950 168.044,258.400 167.202,258.400 166.767 C 258.400 166.331,258.661 165.875,258.981 165.752 C 259.300 165.630,259.773 164.870,260.031 164.065 C 260.290 163.259,260.732 162.330,261.013 162.000 C 261.295 161.670,261.725 160.680,261.969 159.800 C 262.213 158.920,262.680 157.851,263.006 157.424 C 263.333 156.996,263.600 156.222,263.600 155.702 C 263.600 155.182,263.970 153.944,264.422 152.952 C 264.874 151.959,265.341 150.214,265.460 149.074 C 265.578 147.933,265.974 146.370,266.338 145.600 C 267.326 143.511,267.326 123.288,266.337 121.200 C 265.973 120.430,265.566 118.760,265.433 117.490 C 265.300 116.219,264.833 114.512,264.395 113.696 C 263.958 112.880,263.600 111.749,263.600 111.182 C 263.600 110.616,263.333 109.804,263.006 109.376 C 262.680 108.949,262.213 107.880,261.969 107.000 C 261.725 106.120,261.295 105.130,261.013 104.800 C 260.732 104.470,260.290 103.541,260.031 102.735 C 259.773 101.930,259.300 101.170,258.981 101.048 C 258.661 100.925,258.400 100.523,258.400 100.154 C 258.400 99.338,255.709 95.200,255.179 95.200 C 254.970 95.200,254.800 94.913,254.800 94.563 C 254.800 93.813,253.714 92.338,251.100 89.534 C 250.055 88.414,249.200 87.352,249.200 87.176 C 249.200 86.999,248.840 86.740,248.400 86.600 C 247.960 86.460,247.600 86.083,247.600 85.760 C 247.600 85.438,247.330 85.071,247.000 84.945 C 246.671 84.818,245.366 83.722,244.100 82.509 C 242.835 81.296,241.140 79.882,240.334 79.368 C 239.527 78.853,238.751 78.245,238.610 78.016 C 238.469 77.787,238.003 77.600,237.576 77.600 C 237.149 77.600,236.800 77.424,236.800 77.208 C 236.800 76.993,236.125 76.451,235.300 76.004 C 233.619 75.094,232.837 74.628,230.778 73.310 C 229.997 72.809,229.034 72.400,228.640 72.400 C 228.246 72.400,227.427 72.046,226.820 71.614 C 226.213 71.182,224.970 70.709,224.058 70.563 C 223.146 70.417,222.400 70.170,222.400 70.013 C 222.400 69.493,220.384 68.800,218.870 68.800 C 218.049 68.800,216.984 68.524,216.503 68.187 C 216.022 67.851,214.047 67.396,212.114 67.176 C 210.182 66.957,207.430 66.608,206.000 66.399 C 201.889 65.800,199.581 65.701,197.000 66.011 M207.200 67.235 C 210.170 67.475,213.320 67.918,214.200 68.218 C 215.080 68.518,216.873 68.973,218.184 69.228 C 219.495 69.483,220.935 69.923,221.384 70.207 C 221.833 70.490,222.815 70.850,223.567 71.007 C 224.318 71.164,225.488 71.631,226.167 72.045 C 226.845 72.459,227.777 72.798,228.238 72.799 C 228.699 72.799,229.393 73.150,229.779 73.577 C 230.166 74.005,230.986 74.465,231.600 74.600 C 232.214 74.735,233.034 75.195,233.421 75.623 C 233.807 76.050,234.311 76.400,234.540 76.400 C 235.788 76.400,244.532 83.336,248.486 87.461 C 250.715 89.787,256.400 97.186,256.400 97.761 C 256.400 97.968,256.655 98.421,256.966 98.769 C 257.775 99.672,261.598 107.284,261.602 108.000 C 261.604 108.330,261.963 109.140,262.400 109.800 C 262.837 110.460,263.204 111.360,263.215 111.800 C 263.226 112.240,263.512 113.320,263.851 114.200 C 264.189 115.080,264.824 117.690,265.261 120.000 C 265.698 122.310,266.212 125.010,266.404 126.000 C 266.595 126.990,266.752 130.320,266.752 133.400 C 266.752 136.480,266.595 139.810,266.404 140.800 C 266.212 141.790,265.705 144.490,265.278 146.800 C 264.850 149.110,264.207 151.669,263.850 152.487 C 263.492 153.305,263.200 154.349,263.200 154.808 C 263.200 155.266,262.864 156.307,262.452 157.121 C 262.041 157.934,261.344 159.410,260.903 160.400 C 259.272 164.061,257.388 167.678,256.901 168.082 C 256.626 168.311,256.400 168.731,256.400 169.015 C 256.400 169.299,256.042 169.952,255.604 170.466 C 254.103 172.226,252.400 174.510,252.400 174.763 C 252.400 175.289,244.492 183.183,242.000 185.145 C 240.570 186.270,238.966 187.553,238.437 187.996 C 237.907 188.438,237.232 188.800,236.937 188.800 C 236.641 188.800,236.400 188.967,236.400 189.171 C 236.400 189.375,235.680 189.860,234.800 190.248 C 233.920 190.636,233.200 191.080,233.200 191.234 C 233.200 191.387,232.461 191.809,231.558 192.170 C 230.655 192.532,229.652 193.091,229.329 193.414 C 229.007 193.736,228.465 194.000,228.126 194.000 C 227.787 194.000,226.854 194.331,226.054 194.737 C 224.353 195.598,221.267 196.706,219.000 197.268 C 218.120 197.486,216.230 198.003,214.800 198.415 C 208.710 200.172,191.111 200.153,185.470 198.385 C 184.111 197.959,182.590 197.608,182.088 197.605 C 181.586 197.602,180.107 197.150,178.800 196.600 C 177.493 196.050,176.081 195.600,175.661 195.600 C 175.241 195.600,174.698 195.359,174.454 195.065 C 174.209 194.770,173.309 194.320,172.452 194.063 C 171.596 193.806,170.672 193.327,170.398 192.998 C 170.125 192.669,169.578 192.400,169.182 192.400 C 168.786 192.400,167.927 191.950,167.273 191.400 C 166.619 190.850,165.866 190.400,165.600 190.400 C 165.334 190.400,164.607 189.995,163.985 189.500 C 163.364 189.005,162.202 188.150,161.404 187.600 C 160.605 187.050,159.738 186.420,159.476 186.200 C 159.214 185.980,158.319 185.291,157.486 184.669 C 154.539 182.468,147.130 174.457,145.409 171.611 C 144.612 170.294,143.243 168.194,142.924 167.800 C 142.370 167.116,138.396 159.023,138.398 158.585 C 138.399 158.356,138.040 157.463,137.600 156.600 C 137.160 155.737,136.796 154.664,136.791 154.215 C 136.786 153.767,136.447 152.662,136.037 151.759 C 135.628 150.857,135.159 148.967,134.996 147.559 C 134.833 146.152,134.443 144.190,134.129 143.200 C 133.380 140.840,132.995 130.558,133.529 127.200 C 134.383 121.841,135.570 116.147,136.158 114.600 C 136.492 113.720,136.773 112.640,136.784 112.200 C 136.794 111.760,137.162 110.811,137.601 110.090 C 138.041 109.370,138.400 108.563,138.400 108.296 C 138.400 108.030,138.834 106.909,139.365 105.806 C 139.895 104.703,140.436 103.530,140.566 103.200 C 140.697 102.870,141.338 101.700,141.992 100.600 C 142.646 99.500,143.480 98.060,143.845 97.400 C 144.210 96.740,144.754 96.056,145.054 95.880 C 145.354 95.704,145.600 95.370,145.600 95.138 C 145.600 94.625,148.199 91.224,150.407 88.847 C 150.961 88.251,151.771 87.321,152.207 86.781 C 153.846 84.753,164.570 76.400,165.535 76.400 C 165.722 76.400,166.177 76.068,166.544 75.661 C 166.912 75.255,167.930 74.708,168.806 74.445 C 169.683 74.183,170.400 73.802,170.400 73.599 C 170.400 73.397,171.165 73.027,172.100 72.778 C 173.035 72.529,174.070 72.096,174.400 71.817 C 174.730 71.537,175.540 71.185,176.200 71.035 C 176.860 70.885,178.300 70.432,179.400 70.027 C 186.707 67.341,196.439 66.364,207.200 67.235 M191.000 232.750 C 188.360 232.898,185.954 233.172,185.654 233.361 C 185.354 233.549,181.997 233.935,178.193 234.217 C 174.389 234.499,170.904 234.930,170.448 235.175 C 169.991 235.419,167.680 235.802,165.312 236.027 C 162.944 236.251,160.645 236.669,160.203 236.955 C 159.762 237.241,158.140 237.585,156.600 237.719 C 155.060 237.853,152.769 238.331,151.510 238.781 C 150.250 239.231,148.540 239.604,147.710 239.609 C 146.879 239.614,145.480 239.945,144.600 240.344 C 143.720 240.744,142.014 241.201,140.810 241.361 C 139.605 241.521,138.391 241.842,138.110 242.075 C 137.830 242.307,136.394 242.750,134.920 243.059 C 133.446 243.369,131.961 243.864,131.620 244.160 C 131.279 244.456,130.138 244.790,129.084 244.902 C 128.030 245.014,126.860 245.377,126.484 245.709 C 126.108 246.041,124.990 246.442,124.000 246.599 C 123.010 246.756,121.840 247.202,121.400 247.589 C 120.960 247.977,119.903 248.400,119.050 248.530 C 118.198 248.660,117.208 249.028,116.850 249.349 C 116.493 249.670,115.531 250.057,114.713 250.208 C 113.895 250.360,112.832 250.825,112.351 251.242 C 111.871 251.659,111.079 252.000,110.593 252.000 C 110.106 252.000,109.250 252.360,108.691 252.800 C 108.131 253.240,107.412 253.600,107.093 253.600 C 106.773 253.600,105.849 254.050,105.038 254.600 C 104.228 255.150,103.240 255.600,102.844 255.600 C 102.448 255.600,101.813 255.944,101.433 256.364 C 101.052 256.784,100.274 257.245,99.702 257.389 C 99.131 257.532,98.220 257.998,97.678 258.425 C 97.136 258.851,96.468 259.200,96.195 259.200 C 95.922 259.200,95.465 259.480,95.181 259.823 C 94.896 260.166,94.064 260.697,93.332 261.003 C 92.599 261.309,92.000 261.731,92.000 261.940 C 92.000 262.150,91.505 262.522,90.900 262.766 C 89.510 263.327,87.102 265.075,86.681 265.827 C 86.505 266.142,86.139 266.400,85.869 266.400 C 85.599 266.400,85.079 266.715,84.714 267.100 C 84.349 267.485,83.110 268.610,81.960 269.600 C 76.694 274.137,72.773 278.840,70.956 282.800 C 70.603 283.570,70.084 284.332,69.803 284.494 C 69.521 284.656,69.165 285.466,69.012 286.294 C 68.858 287.122,68.462 288.102,68.131 288.470 C 67.800 288.839,67.357 290.532,67.146 292.232 C 66.935 293.932,66.546 295.700,66.281 296.162 C 65.933 296.768,65.765 301.682,65.673 313.951 C 65.538 331.814,65.604 332.597,67.344 333.816 C 68.071 334.325,85.085 334.400,200.120 334.400 L 332.062 334.400 333.231 333.231 L 334.400 332.062 334.400 315.328 C 334.400 304.555,334.247 298.097,333.971 297.197 C 333.735 296.429,333.383 294.483,333.188 292.874 C 332.982 291.174,332.491 289.394,332.016 288.627 C 331.567 287.900,331.200 286.922,331.200 286.453 C 331.200 285.984,330.840 285.240,330.400 284.800 C 329.960 284.360,329.600 283.765,329.600 283.478 C 329.600 283.190,329.150 282.345,328.600 281.600 C 328.050 280.855,327.600 280.075,327.600 279.868 C 327.600 279.661,327.195 279.090,326.700 278.600 C 326.205 278.109,325.080 276.831,324.200 275.759 C 321.820 272.859,318.729 269.600,318.358 269.600 C 318.179 269.600,317.313 268.895,316.433 268.032 C 315.553 267.170,314.466 266.348,314.017 266.205 C 313.568 266.063,313.200 265.692,313.200 265.381 C 313.200 265.070,312.750 264.702,312.200 264.564 C 311.650 264.426,311.200 264.181,311.200 264.020 C 311.200 263.858,310.525 263.383,309.700 262.963 C 308.875 262.543,308.055 261.973,307.878 261.696 C 307.701 261.419,306.981 260.928,306.278 260.604 C 304.988 260.011,304.557 259.761,301.978 258.110 C 301.197 257.609,300.292 257.200,299.967 257.200 C 299.643 257.200,299.070 256.840,298.693 256.400 C 298.316 255.960,297.674 255.600,297.265 255.600 C 296.857 255.600,296.102 255.235,295.587 254.789 C 295.073 254.343,294.191 253.882,293.626 253.765 C 293.062 253.648,292.330 253.382,292.000 253.173 C 291.670 252.965,290.950 252.601,290.400 252.364 C 289.850 252.127,288.770 251.611,288.000 251.217 C 287.230 250.823,285.970 250.364,285.200 250.198 C 284.430 250.032,283.371 249.559,282.846 249.148 C 282.321 248.737,281.401 248.400,280.800 248.400 C 280.199 248.400,279.271 248.057,278.738 247.637 C 278.205 247.218,276.920 246.747,275.884 246.592 C 274.848 246.436,274.000 246.178,274.000 246.019 C 274.000 245.542,272.048 244.800,270.793 244.800 C 270.151 244.800,268.944 244.455,268.112 244.034 C 267.281 243.613,265.794 243.140,264.809 242.983 C 263.824 242.827,262.654 242.462,262.209 242.173 C 261.764 241.884,260.410 241.522,259.200 241.369 C 257.990 241.215,256.332 240.755,255.516 240.345 C 254.700 239.935,253.390 239.600,252.606 239.600 C 251.822 239.600,250.150 239.230,248.890 238.777 C 247.631 238.325,245.250 237.847,243.600 237.716 C 241.950 237.584,240.238 237.242,239.797 236.956 C 239.355 236.669,237.056 236.251,234.688 236.027 C 232.320 235.802,230.006 235.418,229.547 235.172 C 229.088 234.926,225.717 234.485,222.056 234.191 C 218.395 233.898,214.710 233.481,213.867 233.264 C 211.843 232.743,197.073 232.412,191.000 232.750 M207.200 233.613 C 209.290 233.829,213.880 234.174,217.400 234.380 C 220.920 234.586,224.970 235.036,226.400 235.381 C 227.830 235.726,230.760 236.182,232.911 236.395 C 235.061 236.609,237.135 236.951,237.518 237.156 C 237.901 237.361,239.742 237.736,241.608 237.989 C 243.473 238.242,245.720 238.692,246.600 238.990 C 247.480 239.288,249.100 239.648,250.200 239.791 C 251.300 239.933,253.152 240.399,254.315 240.825 C 255.478 241.251,256.940 241.600,257.564 241.600 C 258.188 241.600,259.494 241.952,260.466 242.382 C 261.438 242.812,263.036 243.287,264.017 243.438 C 264.998 243.588,266.286 243.956,266.880 244.256 C 267.474 244.555,268.912 245.004,270.076 245.254 C 271.240 245.503,272.554 245.936,272.996 246.214 C 273.438 246.493,274.430 246.853,275.200 247.014 C 275.970 247.175,277.227 247.643,277.994 248.053 C 278.761 248.464,279.730 248.800,280.147 248.800 C 280.564 248.800,281.467 249.141,282.153 249.557 C 282.839 249.973,284.030 250.447,284.800 250.609 C 285.570 250.771,286.629 251.241,287.154 251.652 C 287.679 252.063,288.363 252.400,288.675 252.400 C 288.986 252.400,289.907 252.753,290.721 253.185 C 291.534 253.617,293.550 254.611,295.200 255.394 C 297.943 256.696,298.580 257.024,300.400 258.072 C 300.730 258.262,301.630 258.731,302.400 259.115 C 304.263 260.044,308.636 262.838,310.200 264.099 C 310.420 264.276,311.500 265.001,312.600 265.711 C 316.193 268.027,327.600 279.960,327.600 281.402 C 327.600 281.663,327.960 282.202,328.400 282.600 C 328.840 282.998,329.200 283.643,329.200 284.033 C 329.200 284.424,329.490 285.033,329.844 285.387 C 330.198 285.741,330.729 286.788,331.025 287.715 C 331.320 288.642,331.878 290.210,332.264 291.200 C 333.379 294.058,333.624 331.792,332.533 332.619 C 331.911 333.090,311.822 333.176,199.923 333.187 L 68.045 333.200 67.423 332.311 C 65.927 330.176,66.786 292.677,68.395 289.857 C 68.789 289.165,69.230 287.925,69.374 287.100 C 69.518 286.275,69.786 285.600,69.970 285.600 C 70.153 285.600,70.540 285.015,70.829 284.300 C 71.119 283.585,71.653 282.550,72.015 282.000 C 72.378 281.450,73.198 280.203,73.837 279.228 C 75.030 277.410,83.656 268.400,84.203 268.400 C 84.371 268.400,84.918 267.995,85.419 267.500 C 86.820 266.116,90.486 263.453,91.816 262.852 C 92.265 262.649,92.873 262.195,93.165 261.842 C 93.458 261.489,93.918 261.200,94.188 261.200 C 94.457 261.200,95.060 260.868,95.528 260.463 C 95.996 260.057,99.758 258.055,103.889 256.014 C 113.854 251.091,115.362 250.400,116.130 250.400 C 116.488 250.400,117.370 250.041,118.090 249.601 C 118.811 249.162,119.673 248.802,120.006 248.801 C 120.339 248.801,121.239 248.467,122.006 248.059 C 122.773 247.651,124.346 247.093,125.501 246.819 C 126.657 246.544,127.695 246.170,127.808 245.987 C 127.921 245.804,129.046 245.442,130.307 245.184 C 131.568 244.925,132.815 244.539,133.078 244.326 C 133.340 244.113,134.720 243.695,136.143 243.398 C 137.566 243.100,139.278 242.574,139.946 242.228 C 140.614 241.883,141.777 241.600,142.531 241.600 C 143.285 241.600,144.584 241.315,145.417 240.967 C 146.250 240.619,148.027 240.167,149.366 239.962 C 150.705 239.757,152.520 239.335,153.400 239.025 C 154.280 238.714,156.491 238.270,158.314 238.037 C 160.136 237.804,161.977 237.427,162.403 237.198 C 162.830 236.970,164.988 236.611,167.199 236.400 C 169.410 236.189,172.316 235.733,173.657 235.385 C 174.998 235.038,179.089 234.572,182.748 234.351 C 186.407 234.129,190.750 233.806,192.400 233.632 C 196.771 233.173,202.854 233.165,207.200 233.613 " stroke="none" fill="#a6a6a6" fill-rule="evenodd"></path><path id="path3" d="M191.200 67.560 C 189.110 67.722,187.040 68.050,186.600 68.288 C 186.160 68.526,184.630 68.939,183.200 69.205 C 181.770 69.472,179.868 70.029,178.974 70.445 C 178.079 70.860,177.087 71.200,176.768 71.200 C 176.449 71.200,175.516 71.560,174.696 72.000 C 173.875 72.440,172.842 72.800,172.401 72.800 C 171.961 72.800,171.245 73.155,170.810 73.590 C 170.376 74.024,169.521 74.498,168.910 74.642 C 168.300 74.787,167.440 75.209,167.000 75.582 C 166.560 75.954,165.210 76.874,164.000 77.628 C 162.790 78.381,161.530 79.215,161.200 79.482 C 160.870 79.748,159.880 80.516,159.000 81.188 C 156.243 83.293,153.853 85.354,152.709 86.613 C 152.103 87.280,150.797 88.720,149.805 89.813 C 148.814 90.906,148.003 91.912,148.002 92.049 C 148.001 92.186,147.100 93.424,146.000 94.800 C 144.900 96.176,144.000 97.527,144.000 97.802 C 144.000 98.077,143.742 98.516,143.426 98.779 C 142.829 99.274,139.132 106.650,138.604 108.400 C 138.438 108.950,138.131 109.615,137.921 109.877 C 137.711 110.140,137.277 111.478,136.957 112.852 C 136.637 114.225,136.199 115.560,135.985 115.819 C 135.770 116.077,135.420 117.668,135.206 119.353 C 134.992 121.038,134.544 123.474,134.209 124.766 C 133.370 128.003,133.370 138.797,134.209 142.034 C 134.544 143.326,134.992 145.762,135.206 147.447 C 135.420 149.132,135.770 150.723,135.985 150.981 C 136.199 151.240,136.626 152.528,136.933 153.844 C 137.240 155.159,137.680 156.588,137.911 157.018 C 138.142 157.448,138.804 158.880,139.382 160.200 C 140.380 162.479,140.685 163.088,142.487 166.400 C 144.373 169.867,144.803 170.519,146.400 172.332 C 146.730 172.707,147.346 173.546,147.768 174.196 C 149.826 177.367,155.483 183.020,159.379 185.800 C 159.996 186.240,160.973 186.965,161.550 187.411 C 163.484 188.905,165.839 190.400,166.260 190.400 C 166.489 190.400,166.993 190.750,167.379 191.177 C 167.766 191.605,168.616 192.072,169.269 192.215 C 169.921 192.358,170.551 192.728,170.670 193.038 C 170.788 193.347,171.181 193.602,171.543 193.604 C 171.904 193.606,173.100 194.050,174.200 194.591 C 175.300 195.132,176.522 195.581,176.916 195.587 C 177.310 195.594,178.304 195.943,179.125 196.362 C 179.947 196.781,181.515 197.253,182.609 197.411 C 183.704 197.569,185.207 197.946,185.949 198.249 C 186.691 198.552,187.681 198.793,188.149 198.785 C 189.788 198.757,185.761 197.225,183.344 196.958 C 182.055 196.815,180.439 196.361,179.753 195.949 C 179.067 195.537,178.077 195.199,177.553 195.199 C 177.029 195.198,176.045 194.859,175.367 194.445 C 174.688 194.031,173.518 193.558,172.767 193.393 C 172.015 193.228,171.165 192.757,170.877 192.346 C 170.590 191.936,169.928 191.600,169.406 191.600 C 168.884 191.600,168.148 191.285,167.771 190.900 C 167.073 190.189,165.647 189.331,163.300 188.210 C 162.585 187.869,162.000 187.446,162.000 187.271 C 162.000 187.097,161.267 186.424,160.372 185.777 C 156.611 183.059,151.600 178.682,151.600 178.115 C 151.600 177.992,151.195 177.489,150.700 176.996 C 150.205 176.503,149.350 175.443,148.800 174.640 C 147.816 173.204,146.525 171.581,145.424 170.397 C 145.116 170.065,144.739 169.296,144.586 168.687 C 144.434 168.079,143.995 167.361,143.612 167.091 C 143.228 166.821,142.774 166.150,142.602 165.600 C 142.431 165.050,141.955 164.171,141.545 163.646 C 141.135 163.121,140.800 162.381,140.800 162.000 C 140.800 161.619,140.440 160.850,140.000 160.291 C 139.560 159.731,139.200 158.831,139.200 158.291 C 139.200 157.750,138.850 156.863,138.422 156.319 C 137.995 155.776,137.516 154.356,137.359 153.165 C 137.201 151.974,136.759 150.550,136.376 150.000 C 135.889 149.302,135.615 147.900,135.469 145.358 C 135.354 143.355,134.976 141.038,134.630 140.210 C 133.757 138.121,133.739 128.722,134.604 126.652 C 134.936 125.856,135.319 123.539,135.455 121.503 C 135.616 119.085,135.945 117.384,136.401 116.600 C 136.786 115.940,137.220 114.448,137.366 113.284 C 137.527 111.999,137.940 110.860,138.416 110.384 C 138.847 109.953,139.200 109.133,139.200 108.563 C 139.200 107.993,139.560 107.069,140.000 106.509 C 140.440 105.950,140.800 105.181,140.800 104.800 C 140.800 104.419,141.135 103.679,141.545 103.154 C 141.955 102.629,142.427 101.750,142.595 101.200 C 142.762 100.650,143.237 99.878,143.650 99.484 C 144.062 99.091,144.400 98.521,144.400 98.218 C 144.400 97.916,144.758 97.248,145.195 96.734 C 145.929 95.871,149.019 91.883,150.688 89.645 C 152.080 87.777,156.644 83.499,158.596 82.232 C 160.109 81.250,160.665 80.808,161.784 79.700 C 162.283 79.205,162.851 78.797,163.046 78.793 C 163.390 78.786,166.233 76.993,167.758 75.821 C 168.175 75.500,169.015 75.129,169.624 74.995 C 170.234 74.861,170.824 74.515,170.935 74.226 C 171.045 73.937,171.794 73.578,172.597 73.427 C 173.401 73.276,174.630 72.804,175.329 72.378 C 176.028 71.952,177.071 71.602,177.646 71.601 C 178.221 71.601,179.145 71.244,179.697 70.809 C 180.309 70.328,181.623 69.923,183.051 69.776 C 184.343 69.643,186.267 69.179,187.326 68.744 C 189.973 67.660,211.510 67.750,213.200 68.852 C 213.750 69.211,215.340 69.615,216.734 69.750 C 218.369 69.908,219.629 70.279,220.288 70.797 C 220.849 71.239,221.814 71.600,222.433 71.600 C 223.051 71.600,224.404 72.050,225.438 72.600 C 226.473 73.150,227.579 73.600,227.896 73.600 C 228.214 73.600,228.931 73.960,229.491 74.400 C 230.050 74.840,230.816 75.200,231.192 75.200 C 231.568 75.200,232.202 75.560,232.600 76.000 C 232.998 76.440,233.538 76.800,233.800 76.800 C 234.062 76.800,234.602 77.160,235.000 77.600 C 235.398 78.040,235.951 78.400,236.229 78.400 C 236.507 78.400,237.964 79.394,239.467 80.608 C 240.970 81.823,242.618 83.128,243.129 83.508 C 244.424 84.472,250.000 89.933,250.000 90.236 C 250.000 90.468,251.899 93.038,253.077 94.400 C 254.662 96.233,255.600 97.571,255.600 98.000 C 255.600 98.266,256.050 99.019,256.600 99.673 C 257.150 100.327,257.600 101.180,257.600 101.569 C 257.600 101.958,257.942 102.586,258.360 102.964 C 258.779 103.343,259.233 104.253,259.371 104.988 C 259.509 105.722,259.861 106.415,260.154 106.527 C 260.447 106.639,260.802 107.454,260.944 108.337 C 261.085 109.221,261.463 110.206,261.784 110.527 C 262.105 110.848,262.549 112.235,262.770 113.609 C 262.992 114.983,263.427 116.398,263.738 116.753 C 264.084 117.149,264.413 118.863,264.587 121.174 C 264.855 124.726,266.332 130.040,266.373 127.600 C 266.383 127.050,266.127 125.610,265.804 124.400 C 265.482 123.190,265.110 121.120,264.978 119.800 C 264.846 118.480,264.411 116.590,264.012 115.600 C 263.612 114.610,263.162 113.045,263.011 112.123 C 262.861 111.201,262.482 110.234,262.169 109.974 C 261.856 109.714,261.600 109.212,261.600 108.857 C 261.600 108.287,260.301 105.268,259.079 103.000 C 258.842 102.560,258.310 101.570,257.896 100.800 C 254.507 94.491,249.183 87.904,243.858 83.434 C 240.481 80.600,237.601 78.400,237.268 78.400 C 237.079 78.400,236.598 78.040,236.200 77.600 C 235.802 77.160,235.248 76.800,234.969 76.800 C 234.690 76.800,233.927 76.350,233.273 75.800 C 232.619 75.250,231.830 74.800,231.520 74.800 C 231.209 74.800,230.345 74.350,229.600 73.800 C 228.855 73.250,227.896 72.800,227.470 72.800 C 227.043 72.800,226.133 72.459,225.447 72.043 C 224.761 71.627,223.573 71.153,222.806 70.991 C 222.039 70.828,221.049 70.468,220.606 70.191 C 220.163 69.914,218.938 69.565,217.885 69.417 C 216.831 69.268,214.977 68.805,213.764 68.388 C 211.228 67.515,198.014 67.030,191.200 67.560 M266.553 133.400 C 266.553 136.040,266.618 137.068,266.697 135.684 C 266.775 134.301,266.774 132.141,266.695 130.884 C 266.616 129.628,266.552 130.760,266.553 133.400 M265.513 140.227 C 265.136 141.312,264.708 143.820,264.563 145.800 C 264.403 147.975,264.076 149.656,263.736 150.047 C 263.426 150.402,262.988 151.838,262.763 153.237 C 262.538 154.637,262.211 155.876,262.037 155.991 C 261.500 156.345,260.800 157.905,260.800 158.745 C 260.800 159.184,260.557 159.786,260.260 160.082 C 259.964 160.379,259.504 161.278,259.240 162.079 C 258.975 162.880,258.498 163.752,258.180 164.017 C 257.861 164.282,257.600 164.822,257.600 165.218 C 257.600 165.614,257.150 166.473,256.600 167.127 C 256.050 167.781,255.600 168.534,255.600 168.800 C 255.600 169.281,254.928 170.191,252.086 173.556 C 251.270 174.522,250.314 175.782,249.961 176.356 C 249.106 177.746,244.424 182.346,242.588 183.600 C 241.782 184.150,240.748 185.005,240.289 185.500 C 239.831 185.995,239.225 186.400,238.942 186.400 C 238.659 186.400,238.242 186.748,238.014 187.173 C 237.787 187.598,237.222 188.066,236.759 188.213 C 235.787 188.521,233.293 190.098,232.366 190.990 C 232.018 191.326,231.371 191.600,230.928 191.600 C 230.486 191.600,229.814 191.942,229.436 192.360 C 229.057 192.779,228.084 193.244,227.274 193.394 C 226.463 193.545,225.516 193.922,225.170 194.233 C 224.823 194.544,223.691 194.957,222.655 195.150 C 221.619 195.344,220.463 195.770,220.086 196.098 C 219.709 196.425,218.242 196.808,216.828 196.948 C 215.413 197.088,213.793 197.517,213.228 197.901 C 212.327 198.514,210.769 198.625,200.600 198.800 C 189.197 198.997,189.093 199.006,194.500 199.341 C 200.944 199.740,210.152 199.338,213.000 198.532 C 214.100 198.220,216.170 197.719,217.600 197.417 C 219.030 197.115,220.740 196.584,221.400 196.237 C 222.060 195.889,222.905 195.604,223.279 195.602 C 223.652 195.601,224.804 195.150,225.838 194.600 C 226.873 194.050,228.042 193.600,228.436 193.600 C 228.830 193.600,229.273 193.405,229.420 193.167 C 229.568 192.929,230.433 192.387,231.344 191.963 C 232.255 191.539,233.810 190.656,234.800 190.002 C 235.790 189.348,236.870 188.688,237.200 188.536 C 237.530 188.384,238.183 187.886,238.650 187.430 C 239.118 186.973,240.157 186.150,240.960 185.600 C 245.615 182.410,252.732 174.620,256.278 168.832 C 257.822 166.311,261.600 158.567,261.600 157.922 C 261.600 157.579,261.856 157.086,262.169 156.826 C 262.482 156.566,262.864 155.599,263.018 154.677 C 263.172 153.755,263.610 152.190,263.992 151.200 C 264.374 150.210,264.809 148.320,264.958 147.000 C 265.108 145.680,265.503 143.546,265.837 142.257 C 266.661 139.079,266.425 137.605,265.513 140.227 M191.624 234.006 C 190.428 234.185,186.738 234.453,183.424 234.602 C 180.111 234.751,176.320 235.145,175.000 235.479 C 173.680 235.813,170.800 236.236,168.600 236.418 C 166.400 236.601,163.792 237.039,162.804 237.392 C 161.816 237.744,159.926 238.132,158.604 238.253 C 157.282 238.375,155.164 238.817,153.898 239.237 C 152.633 239.657,150.974 240.000,150.213 240.000 C 149.453 240.000,147.878 240.349,146.715 240.775 C 145.552 241.201,143.700 241.677,142.600 241.832 C 141.500 241.987,139.973 242.448,139.206 242.857 C 138.439 243.266,137.269 243.604,136.606 243.609 C 135.943 243.614,134.612 243.975,133.648 244.412 C 132.685 244.849,131.155 245.320,130.248 245.458 C 129.342 245.596,128.403 245.863,128.163 246.051 C 127.719 246.399,122.782 248.164,120.600 248.755 C 119.940 248.934,118.683 249.467,117.806 249.940 C 116.929 250.413,115.828 250.800,115.360 250.800 C 114.891 250.800,114.079 251.133,113.554 251.539 C 113.029 251.945,112.074 252.407,111.432 252.564 C 110.789 252.721,109.820 253.198,109.278 253.625 C 108.736 254.051,108.091 254.399,107.846 254.399 C 107.383 254.397,100.890 257.643,97.400 259.621 C 96.300 260.244,94.950 260.988,94.400 261.274 C 93.850 261.560,93.051 262.111,92.625 262.497 C 92.198 262.884,91.731 263.200,91.587 263.200 C 91.442 263.200,90.801 263.650,90.162 264.200 C 89.523 264.749,88.878 265.199,88.729 265.200 C 88.579 265.200,88.219 265.437,87.929 265.726 C 87.638 266.015,87.091 266.424,86.714 266.634 C 84.301 267.978,73.201 279.505,73.200 280.669 C 73.199 280.851,72.749 281.523,72.200 282.162 C 71.650 282.801,71.200 283.634,71.200 284.013 C 71.200 284.392,70.931 284.925,70.602 285.198 C 70.273 285.472,69.798 286.439,69.546 287.347 C 69.295 288.256,68.709 289.810,68.244 290.800 C 67.213 292.999,66.631 331.032,67.611 332.213 C 68.342 333.095,331.649 333.104,332.381 332.223 C 333.379 331.020,332.748 292.563,331.694 290.400 C 331.212 289.410,330.814 288.268,330.809 287.862 C 330.804 287.456,330.464 286.646,330.052 286.062 C 329.641 285.478,329.169 284.550,329.003 284.000 C 328.837 283.450,328.363 282.678,327.950 282.284 C 327.538 281.891,327.200 281.379,327.200 281.148 C 327.200 280.255,323.238 275.664,318.825 271.445 C 317.189 269.880,315.426 268.195,314.907 267.700 C 314.388 267.205,313.887 266.800,313.794 266.800 C 313.615 266.800,309.947 264.349,309.600 263.998 C 308.895 263.284,306.461 261.671,305.753 261.447 C 305.287 261.300,304.584 260.824,304.191 260.390 C 303.798 259.955,303.217 259.600,302.900 259.600 C 302.583 259.600,301.824 259.244,301.214 258.810 C 300.604 258.375,299.676 257.832,299.152 257.603 C 298.629 257.374,297.210 256.634,296.000 255.959 C 294.790 255.284,293.173 254.547,292.406 254.321 C 291.640 254.095,290.580 253.571,290.052 253.155 C 289.524 252.740,288.740 252.400,288.309 252.400 C 287.879 252.400,287.069 252.040,286.509 251.600 C 285.950 251.160,285.110 250.800,284.643 250.800 C 284.176 250.800,282.948 250.350,281.915 249.800 C 280.882 249.250,279.708 248.800,279.307 248.800 C 278.906 248.800,278.206 248.540,277.752 248.222 C 277.298 247.904,276.043 247.428,274.963 247.164 C 273.884 246.900,272.799 246.529,272.554 246.338 C 272.149 246.024,269.808 245.316,264.800 243.992 C 263.810 243.731,262.100 243.177,261.000 242.763 C 259.900 242.349,258.100 241.892,257.000 241.749 C 255.900 241.605,254.512 241.242,253.917 240.942 C 253.321 240.642,251.431 240.202,249.717 239.964 C 248.002 239.725,246.375 239.344,246.099 239.115 C 245.823 238.887,244.110 238.550,242.292 238.365 C 240.474 238.181,238.179 237.742,237.193 237.390 C 236.207 237.039,233.600 236.600,231.400 236.415 C 229.200 236.230,226.320 235.802,225.000 235.464 C 220.525 234.317,196.559 233.270,191.624 234.006 M217.276 235.172 C 221.462 235.366,223.762 235.636,224.181 235.984 C 224.570 236.307,226.669 236.615,229.704 236.795 C 232.966 236.989,235.009 237.302,235.825 237.735 C 236.519 238.102,238.600 238.501,240.625 238.654 C 242.803 238.819,244.584 239.174,245.182 239.562 C 245.756 239.935,247.474 240.296,249.316 240.431 C 251.167 240.567,252.595 240.868,252.775 241.160 C 253.135 241.742,255.609 242.377,257.569 242.390 C 258.321 242.396,259.248 242.681,259.627 243.025 C 260.007 243.368,261.397 243.802,262.717 243.988 C 264.038 244.175,265.541 244.594,266.059 244.920 C 266.576 245.247,267.893 245.639,268.984 245.794 C 270.075 245.948,271.405 246.418,271.938 246.837 C 272.471 247.257,273.447 247.600,274.107 247.600 C 274.766 247.600,275.867 247.938,276.553 248.351 C 277.239 248.765,278.457 249.219,279.260 249.362 C 280.063 249.505,280.932 249.878,281.193 250.191 C 281.453 250.504,282.506 250.883,283.533 251.032 C 284.560 251.181,285.722 251.639,286.116 252.051 C 286.509 252.463,287.336 252.800,287.954 252.800 C 288.571 252.800,289.399 253.156,289.793 253.592 C 290.187 254.028,291.103 254.496,291.829 254.632 C 292.554 254.768,293.457 255.221,293.836 255.640 C 294.214 256.058,294.848 256.400,295.244 256.400 C 295.640 256.400,296.628 256.850,297.438 257.400 C 298.249 257.950,299.157 258.400,299.456 258.400 C 299.755 258.400,300.360 258.760,300.800 259.200 C 301.240 259.640,301.938 260.000,302.351 260.000 C 302.764 260.000,303.337 260.283,303.624 260.629 C 303.911 260.975,304.858 261.650,305.727 262.129 C 308.164 263.471,308.557 263.733,309.590 264.700 C 310.118 265.195,310.787 265.600,311.075 265.600 C 311.364 265.600,311.600 265.768,311.600 265.973 C 311.600 266.178,311.970 266.464,312.422 266.607 C 312.875 266.751,314.127 267.708,315.206 268.734 C 316.284 269.760,318.164 271.534,319.383 272.676 C 320.603 273.818,321.600 274.852,321.600 274.972 C 321.600 275.093,322.410 275.955,323.400 276.886 C 324.390 277.818,325.200 278.712,325.200 278.872 C 325.200 279.235,326.982 281.989,327.743 282.800 C 328.052 283.130,328.431 283.986,328.585 284.703 C 328.739 285.420,329.210 286.191,329.633 286.417 C 330.171 286.705,330.400 287.258,330.400 288.267 C 330.400 289.063,330.802 290.352,331.300 291.153 C 332.463 293.022,333.020 330.988,331.898 331.918 C 331.446 332.294,302.039 332.379,199.758 332.301 L 68.200 332.200 68.200 311.971 C 68.200 293.941,68.270 291.673,68.842 291.101 C 69.194 290.748,69.595 289.640,69.733 288.639 C 69.872 287.620,70.339 286.461,70.791 286.009 C 71.236 285.564,71.600 284.756,71.600 284.214 C 71.600 283.639,71.932 283.051,72.395 282.803 C 72.833 282.568,73.299 281.945,73.431 281.418 C 73.564 280.890,74.016 280.148,74.436 279.767 C 74.856 279.387,75.200 278.901,75.200 278.687 C 75.200 278.232,86.159 267.200,86.612 267.200 C 87.127 267.200,91.200 264.379,91.200 264.022 C 91.200 263.838,91.650 263.574,92.200 263.436 C 92.750 263.298,93.200 263.030,93.200 262.841 C 93.200 262.652,93.785 262.259,94.500 261.969 C 95.215 261.678,96.035 261.116,96.323 260.720 C 96.610 260.324,97.171 260.000,97.569 260.000 C 97.967 260.000,98.721 259.665,99.246 259.255 C 99.771 258.845,100.650 258.371,101.200 258.200 C 101.750 258.029,102.629 257.555,103.154 257.145 C 103.679 256.735,104.419 256.400,104.800 256.400 C 105.181 256.400,105.921 256.067,106.446 255.661 C 106.971 255.255,107.940 254.790,108.600 254.629 C 109.260 254.467,110.122 253.990,110.516 253.568 C 110.909 253.145,111.650 252.800,112.162 252.800 C 112.673 252.800,113.521 252.468,114.046 252.061 C 114.571 251.655,115.697 251.213,116.550 251.078 C 117.402 250.944,118.395 250.567,118.756 250.240 C 119.116 249.914,120.155 249.479,121.064 249.275 C 121.973 249.071,123.135 248.610,123.647 248.252 C 124.159 247.893,125.102 247.600,125.742 247.600 C 126.382 247.600,127.488 247.240,128.201 246.799 C 128.913 246.359,130.375 245.885,131.448 245.746 C 132.522 245.606,133.696 245.235,134.059 244.922 C 134.421 244.608,135.834 244.193,137.200 244.000 C 138.566 243.807,139.979 243.392,140.341 243.078 C 140.704 242.764,142.158 242.392,143.572 242.252 C 144.987 242.112,146.607 241.687,147.172 241.308 C 147.809 240.882,149.376 240.529,151.289 240.382 C 153.206 240.234,154.648 239.909,155.089 239.525 C 155.565 239.111,157.045 238.823,159.571 238.653 C 162.109 238.482,163.679 238.175,164.371 237.715 C 165.122 237.216,166.644 236.966,170.000 236.789 C 172.686 236.648,175.349 236.273,176.400 235.887 C 179.860 234.619,198.347 234.296,217.276 235.172 " stroke="none" fill="#6c6c6c" fill-rule="evenodd"></path><path id="path4" d="M197.900 67.095 C 199.055 67.176,200.945 67.176,202.100 67.095 C 203.255 67.014,202.310 66.948,200.000 66.948 C 197.690 66.948,196.745 67.014,197.900 67.095 M192.105 67.487 C 192.714 67.579,193.614 67.577,194.105 67.482 C 194.597 67.387,194.100 67.311,193.000 67.314 C 191.900 67.317,191.497 67.395,192.105 67.487 M206.105 67.487 C 206.714 67.579,207.614 67.577,208.105 67.482 C 208.597 67.387,208.100 67.311,207.000 67.314 C 205.900 67.317,205.497 67.395,206.105 67.487 M185.800 68.214 C 184.213 68.941,184.980 68.939,187.000 68.212 C 187.880 67.895,188.240 67.642,187.800 67.650 C 187.360 67.658,186.460 67.912,185.800 68.214 M225.400 72.000 C 226.060 72.437,226.780 72.795,227.000 72.796 C 227.220 72.796,226.811 72.438,226.090 71.999 C 224.392 70.963,223.836 70.964,225.400 72.000 M238.124 78.677 C 238.460 79.221,241.600 81.755,241.600 81.482 C 241.600 81.380,240.753 80.603,239.719 79.755 C 238.684 78.907,237.966 78.422,238.124 78.677 M158.200 81.450 C 157.481 82.062,157.334 82.305,157.833 82.057 C 158.566 81.693,159.941 80.376,159.549 80.414 C 159.467 80.422,158.860 80.888,158.200 81.450 M250.400 90.000 C 251.321 91.100,252.164 92.000,252.274 92.000 C 252.384 92.000,251.721 91.100,250.800 90.000 C 249.879 88.900,249.036 88.000,248.926 88.000 C 248.816 88.000,249.479 88.900,250.400 90.000 M147.421 92.366 C 146.877 93.228,146.245 94.049,146.016 94.190 C 145.787 94.331,145.600 94.630,145.600 94.854 C 145.600 95.078,146.013 94.753,146.517 94.131 C 147.695 92.679,148.878 90.800,148.614 90.800 C 148.502 90.800,147.965 91.505,147.421 92.366 M252.764 93.133 C 252.980 93.536,253.471 94.121,253.855 94.433 C 254.287 94.784,254.190 94.504,253.601 93.700 C 252.551 92.265,252.157 91.998,252.764 93.133 M258.015 101.000 C 258.017 101.220,258.386 101.850,258.836 102.400 C 259.379 103.064,259.515 103.131,259.240 102.600 C 258.566 101.295,258.012 100.572,258.015 101.000 M141.014 102.235 C 140.641 102.804,140.405 103.338,140.489 103.422 C 140.573 103.507,140.958 103.041,141.344 102.388 C 142.206 100.928,141.948 100.809,141.014 102.235 M263.628 114.600 C 263.628 114.820,263.886 115.450,264.200 116.000 C 264.514 116.550,264.772 116.820,264.772 116.600 C 264.772 116.380,264.514 115.750,264.200 115.200 C 263.886 114.650,263.628 114.380,263.628 114.600 M265.668 123.600 C 265.688 124.639,266.318 126.346,266.332 125.400 C 266.338 124.960,266.189 124.240,266.000 123.800 C 265.789 123.310,265.661 123.232,265.668 123.600 M133.800 124.800 C 133.648 125.491,133.607 126.141,133.709 126.242 C 133.811 126.344,134.009 125.853,134.150 125.150 C 134.483 123.483,134.160 123.160,133.800 124.800 M133.358 133.400 C 133.358 136.480,133.421 137.687,133.497 136.082 C 133.573 134.478,133.573 131.958,133.496 130.482 C 133.419 129.007,133.357 130.320,133.358 133.400 M133.668 141.000 C 133.662 141.440,133.811 142.160,134.000 142.600 C 134.438 143.619,134.438 142.568,134.000 141.200 C 133.743 140.396,133.677 140.357,133.668 141.000 M265.850 142.050 C 265.517 143.717,265.840 144.040,266.200 142.400 C 266.352 141.709,266.393 141.059,266.291 140.958 C 266.189 140.856,265.991 141.347,265.850 142.050 M264.315 150.210 C 264.192 150.645,263.969 151.360,263.820 151.800 C 263.671 152.240,263.842 152.094,264.200 151.476 C 264.558 150.858,264.781 150.142,264.695 149.886 C 264.610 149.630,264.439 149.776,264.315 150.210 M138.804 159.800 C 138.805 160.020,139.163 160.740,139.600 161.400 C 140.636 162.964,140.637 162.408,139.601 160.710 C 139.162 159.989,138.804 159.580,138.804 159.800 M258.778 164.298 C 257.874 166.101,257.887 166.279,258.820 164.883 C 259.304 164.159,259.617 163.483,259.515 163.382 C 259.413 163.280,259.081 163.692,258.778 164.298 M145.615 171.900 C 145.623 172.065,146.268 172.920,147.048 173.800 C 148.144 175.036,148.300 175.129,147.733 174.207 C 146.917 172.878,145.592 171.435,145.615 171.900 M251.426 175.500 C 250.562 176.605,250.493 176.790,251.163 176.204 C 251.965 175.504,253.023 174.000,252.714 174.000 C 252.651 174.000,252.072 174.675,251.426 175.500 M241.097 185.500 C 240.320 186.105,239.350 186.828,238.942 187.106 C 238.534 187.384,238.740 187.342,239.400 187.012 C 240.634 186.397,243.193 184.406,242.755 184.402 C 242.620 184.401,241.874 184.895,241.097 185.500 M225.400 194.800 C 223.836 195.836,224.392 195.837,226.090 194.801 C 226.811 194.362,227.220 194.004,227.000 194.004 C 226.780 194.005,226.060 194.363,225.400 194.800 M178.344 196.409 C 179.303 196.844,180.203 197.192,180.344 197.183 C 180.849 197.150,177.787 195.633,177.200 195.626 C 176.870 195.621,177.385 195.974,178.344 196.409 M184.800 198.200 C 186.626 198.903,187.345 198.893,185.800 198.186 C 185.140 197.883,184.330 197.642,184.000 197.648 C 183.670 197.655,184.030 197.903,184.800 198.200 M192.105 199.487 C 192.714 199.579,193.614 199.577,194.105 199.482 C 194.597 199.387,194.100 199.311,193.000 199.314 C 191.900 199.317,191.497 199.395,192.105 199.487 M206.105 199.487 C 206.714 199.579,207.614 199.577,208.105 199.482 C 208.597 199.387,208.100 199.311,207.000 199.314 C 205.900 199.317,205.497 199.395,206.105 199.487 M198.900 199.887 C 199.505 199.978,200.495 199.978,201.100 199.887 C 201.705 199.795,201.210 199.720,200.000 199.720 C 198.790 199.720,198.295 199.795,198.900 199.887 M197.500 233.496 C 198.875 233.574,201.125 233.574,202.500 233.496 C 203.875 233.418,202.750 233.354,200.000 233.354 C 197.250 233.354,196.125 233.418,197.500 233.496 M188.600 234.000 C 186.691 234.262,186.672 234.276,188.200 234.302 C 189.080 234.317,190.700 234.190,191.800 234.018 C 194.499 233.598,191.650 233.582,188.600 234.000 M208.200 234.018 C 209.300 234.190,210.920 234.320,211.800 234.309 C 213.193 234.290,213.116 234.248,211.200 233.983 C 209.990 233.816,208.370 233.685,207.600 233.693 C 206.478 233.704,206.597 233.769,208.200 234.018 M179.700 234.691 C 180.525 234.778,181.875 234.778,182.700 234.691 C 183.525 234.605,182.850 234.534,181.200 234.534 C 179.550 234.534,178.875 234.605,179.700 234.691 M217.300 234.691 C 218.125 234.778,219.475 234.778,220.300 234.691 C 221.125 234.605,220.450 234.534,218.800 234.534 C 217.150 234.534,216.475 234.605,217.300 234.691 M173.600 235.400 C 172.610 235.687,172.070 235.936,172.400 235.953 C 172.730 235.970,173.900 235.734,175.000 235.428 C 176.100 235.122,176.640 234.873,176.200 234.875 C 175.760 234.877,174.590 235.113,173.600 235.400 M225.847 235.593 C 226.313 235.781,227.573 236.035,228.647 236.157 C 230.541 236.371,230.527 236.361,228.200 235.806 C 225.507 235.165,224.580 235.081,225.847 235.593 M157.700 238.276 C 158.085 238.376,158.715 238.376,159.100 238.276 C 159.485 238.175,159.170 238.093,158.400 238.093 C 157.630 238.093,157.315 238.175,157.700 238.276 M240.900 238.276 C 241.285 238.376,241.915 238.376,242.300 238.276 C 242.685 238.175,242.370 238.093,241.600 238.093 C 240.830 238.093,240.515 238.175,240.900 238.276 M153.400 239.014 C 151.785 239.754,152.751 239.755,154.454 239.016 C 155.194 238.694,155.530 238.439,155.200 238.448 C 154.870 238.457,154.060 238.712,153.400 239.014 M137.800 243.046 C 136.211 243.605,136.209 243.607,137.588 243.397 C 138.351 243.280,139.152 243.008,139.368 242.793 C 139.831 242.329,139.848 242.326,137.800 243.046 M133.376 244.222 C 132.612 244.834,132.613 244.838,133.400 244.476 C 133.840 244.274,134.470 244.008,134.800 243.886 C 135.318 243.693,135.315 243.659,134.776 243.632 C 134.434 243.614,133.804 243.880,133.376 244.222 M265.946 244.216 C 266.686 244.537,267.406 244.794,267.546 244.786 C 268.066 244.757,265.776 243.628,265.200 243.630 C 264.870 243.631,265.206 243.894,265.946 244.216 M122.576 247.822 C 121.812 248.434,121.813 248.438,122.600 248.076 C 123.040 247.874,123.670 247.608,124.000 247.486 C 124.518 247.293,124.515 247.259,123.976 247.232 C 123.634 247.214,123.004 247.480,122.576 247.822 M281.510 249.601 C 283.208 250.637,283.764 250.636,282.200 249.600 C 281.540 249.163,280.820 248.805,280.600 248.804 C 280.380 248.804,280.789 249.162,281.510 249.601 M286.509 251.600 C 287.069 252.040,287.657 252.400,287.817 252.400 C 287.977 252.400,287.650 252.040,287.091 251.600 C 286.531 251.160,285.943 250.800,285.783 250.800 C 285.623 250.800,285.950 251.160,286.509 251.600 M108.400 253.648 C 107.630 254.061,107.295 254.399,107.656 254.399 C 108.016 254.400,108.736 254.046,109.256 253.613 C 110.400 252.660,110.231 252.667,108.400 253.648 M98.200 258.827 C 97.540 259.250,97.205 259.597,97.456 259.598 C 97.706 259.599,98.336 259.246,98.856 258.813 C 100.045 257.823,99.759 257.829,98.200 258.827 M304.703 260.700 C 305.221 261.195,305.860 261.595,306.122 261.588 C 306.385 261.581,306.240 261.376,305.800 261.132 C 305.360 260.888,304.721 260.488,304.380 260.244 C 304.040 260.000,304.185 260.205,304.703 260.700 M312.200 265.788 C 312.860 266.329,313.570 266.778,313.778 266.786 C 313.985 266.794,313.545 266.350,312.800 265.800 C 311.057 264.514,310.635 264.505,312.200 265.788 M82.200 270.235 L 81.000 271.266 82.300 270.406 C 83.015 269.933,83.600 269.468,83.600 269.373 C 83.600 269.073,83.431 269.178,82.200 270.235 M317.600 270.125 C 317.600 270.194,318.185 270.779,318.900 271.425 L 320.200 272.600 319.025 271.300 C 317.930 270.088,317.600 269.816,317.600 270.125 M78.981 273.300 L 77.400 275.000 79.100 273.419 C 80.681 271.948,80.984 271.600,80.681 271.600 C 80.616 271.600,79.851 272.365,78.981 273.300 M75.359 277.300 C 73.607 279.321,73.087 280.000,73.290 280.000 C 73.407 280.000,74.167 279.190,74.979 278.200 C 76.481 276.366,76.779 275.663,75.359 277.300 M331.228 289.400 C 331.228 289.620,331.486 290.250,331.800 290.800 C 332.114 291.350,332.372 291.620,332.372 291.400 C 332.372 291.180,332.114 290.550,331.800 290.000 C 331.486 289.450,331.228 289.180,331.228 289.400 M332.501 293.800 C 332.505 294.680,332.587 294.993,332.683 294.495 C 332.779 293.998,332.775 293.278,332.675 292.895 C 332.575 292.513,332.496 292.920,332.501 293.800 M67.301 295.400 C 67.305 296.280,67.387 296.593,67.483 296.095 C 67.579 295.598,67.575 294.878,67.475 294.495 C 67.375 294.113,67.296 294.520,67.301 295.400 M332.896 314.020 C 332.825 327.237,332.676 331.964,332.320 332.320 C 331.603 333.037,68.404 333.017,67.599 332.300 C 67.122 331.875,67.118 331.904,67.568 332.500 C 68.282 333.444,331.262 333.583,332.504 332.640 C 333.161 332.142,333.201 330.896,333.100 314.153 L 332.992 296.200 332.896 314.020 M66.983 315.200 C 66.983 324.330,67.035 328.065,67.100 323.500 C 67.164 318.935,67.164 311.465,67.100 306.900 C 67.035 302.335,66.983 306.070,66.983 315.200 " stroke="none" fill="#7c7c7c" fill-rule="evenodd"></path></g></svg>